<svg xmlns="http://www.w3.org/2000/svg" xmlns:xlink="http://www.w3.org/1999/xlink" viewBox="0 0 54 54"><defs><style>.cls-1{isolation:isolate;}.cls-2{fill:url(#linear-gradient);}.cls-3{fill:url(#linear-gradient-2);}.cls-4{fill:url(#linear-gradient-3);}.cls-5{mix-blend-mode:overlay;fill:url(#linear-gradient-4);}.cls-6{opacity:0.42;fill:url(#linear-gradient-5);}.cls-7{fill:url(#linear-gradient-6);}.cls-8{fill:url(#linear-gradient-7);}.cls-9{fill:url(#linear-gradient-8);}.cls-10{fill:url(#linear-gradient-9);}.cls-11{opacity:0.32;fill:url(#linear-gradient-10);}.cls-12{font-size:4.62px;fill:#f5f4f9;font-family:Poppins-Bold, Poppins;font-weight:700;letter-spacing:0.18em;}</style><linearGradient id="linear-gradient" x1="24.43" y1="18.51" x2="36.67" y2="18.51" gradientUnits="userSpaceOnUse"><stop offset="0" stop-color="#8a0bff"/><stop offset="1" stop-color="#2a0056"/></linearGradient><linearGradient id="linear-gradient-2" x1="22.57" y1="15.01" x2="33.08" y2="21.3" gradientUnits="userSpaceOnUse"><stop offset="0" stop-color="#8a0bff" stop-opacity="0"/><stop offset="1" stop-color="#2a0056"/></linearGradient><linearGradient id="linear-gradient-3" x1="32.36" y1="29.3" x2="32.36" y2="9.3" gradientUnits="userSpaceOnUse"><stop offset="0" stop-color="#a553ff"/><stop offset="1" stop-color="#ae38ff"/></linearGradient><linearGradient id="linear-gradient-4" x1="31.45" y1="20" x2="39.65" y2="22.65" gradientUnits="userSpaceOnUse"><stop offset="0" stop-color="#af53ff"/><stop offset="0.16" stop-color="#af4dff" stop-opacity="0.8"/><stop offset="0.39" stop-color="#af46ff" stop-opacity="0.52"/><stop offset="0.6" stop-color="#ae40ff" stop-opacity="0.29"/><stop offset="0.78" stop-color="#ae3cff" stop-opacity="0.13"/><stop offset="0.92" stop-color="#ae39ff" stop-opacity="0.04"/><stop offset="1" stop-color="#ae38ff" stop-opacity="0"/></linearGradient><linearGradient id="linear-gradient-5" x1="26.08" y1="20.21" x2="36.94" y2="25.55" gradientUnits="userSpaceOnUse"><stop offset="0" stop-color="#8a0bff"/><stop offset="1" stop-color="#2a0056" stop-opacity="0"/></linearGradient><linearGradient id="linear-gradient-6" x1="17.33" y1="26.91" x2="29.57" y2="26.91" gradientUnits="userSpaceOnUse"><stop offset="0" stop-color="#3d0056"/><stop offset="1" stop-color="#ff0ba2"/></linearGradient><linearGradient id="linear-gradient-7" x1="23.23" y1="24.14" x2="30.43" y2="34.03" gradientUnits="userSpaceOnUse"><stop offset="0" stop-color="#3d0056"/><stop offset="1" stop-color="#e33fc5"/></linearGradient><linearGradient id="linear-gradient-8" x1="21.64" y1="36.11" x2="21.64" y2="16.11" gradientUnits="userSpaceOnUse"><stop offset="0" stop-color="#df38ff"/><stop offset="1" stop-color="#ff39ff"/></linearGradient><linearGradient id="linear-gradient-9" x1="15" y1="21.67" x2="29.77" y2="28.44" gradientUnits="userSpaceOnUse"><stop offset="0" stop-color="#9e0082"/><stop offset="1" stop-color="#ff39ff" stop-opacity="0"/></linearGradient><linearGradient id="linear-gradient-10" x1="-890.61" y1="351.17" x2="-879.75" y2="356.51" gradientTransform="translate(-862.69 376.38) rotate(180)" xlink:href="#linear-gradient-5"/></defs><title>logo_1</title><g class="cls-1"><g id="LOGO2"><path class="cls-2" d="M28,7.71H24.43l7.26,14.18L28.06,29.3h4.27a1.67,1.67,0,0,0,1.5-.93l2.56-5.23a2.8,2.8,0,0,0,0-2.49L30.56,9.3A2.92,2.92,0,0,0,28,7.71Z"/><path class="cls-3" d="M28,7.71H24.43l7.26,14.18L28.06,29.3h4.27a1.67,1.67,0,0,0,1.5-.93l2.56-5.23a2.8,2.8,0,0,0,0-2.49L30.56,9.3A2.92,2.92,0,0,0,28,7.71Z"/><path class="cls-4" d="M30.56,9.3c2.89,5.65,3.12,8.53,1.13,12.59L28.06,29.3h4.27a1.67,1.67,0,0,0,1.5-.93l2.56-5.23a2.8,2.8,0,0,0,0-2.49Z"/><path class="cls-5" d="M30.56,9.3c2.89,5.65,3.12,8.53,1.13,12.59L28.06,29.3h4.27a1.67,1.67,0,0,0,1.5-.93l2.56-5.23a2.8,2.8,0,0,0,0-2.49Z"/><path class="cls-6" d="M36.37,20.65l-1.64-3.2a10.49,10.49,0,0,1-1.29,5.46L30.31,29.3h2a1.67,1.67,0,0,0,1.5-.93l2.56-5.23A2.8,2.8,0,0,0,36.37,20.65Z"/><path class="cls-7" d="M26,37.7h3.53L22.31,23.52l3.63-7.41H21.67a1.68,1.68,0,0,0-1.5.94l-2.56,5.22a2.8,2.8,0,0,0,0,2.49l5.81,11.35A2.92,2.92,0,0,0,26,37.7Z"/><path class="cls-8" d="M26,37.7h3.53L22.31,23.52l3.63-7.41H21.67a1.68,1.68,0,0,0-1.5.94l-2.56,5.22a2.8,2.8,0,0,0,0,2.49l5.81,11.35A2.92,2.92,0,0,0,26,37.7Z"/><path class="cls-9" d="M23.44,36.11c-2.89-5.65-3.12-8.52-1.13-12.59l3.63-7.41H21.67a1.68,1.68,0,0,0-1.5.94l-2.56,5.22a2.8,2.8,0,0,0,0,2.49Z"/><path class="cls-10" d="M23.44,36.11c-2.89-5.65-3.12-8.52-1.13-12.59l3.63-7.41H21.67a1.68,1.68,0,0,0-1.5.94l-2.56,5.22a2.8,2.8,0,0,0,0,2.49Z"/><path class="cls-11" d="M17.63,24.76,19.27,28a10.48,10.48,0,0,1,1.29-5.45l3.13-6.4h-2a1.68,1.68,0,0,0-1.5.94l-2.56,5.22A2.8,2.8,0,0,0,17.63,24.76Z"/><text class="cls-12" transform="translate(15.08 45.72)">CODING</text></g></g></svg>